<svg id="Layer_1" data-name="Layer 1" xmlns="http://www.w3.org/2000/svg" viewBox="0 0 43.08 43.08"><defs><style>.cls-1{fill:#e4eaf5;}.cls-2{fill:#313b73;}</style></defs><g id="Group_7" data-name="Group 7"><rect id="Rectangle_8-2" data-name="Rectangle 8-2" class="cls-1" width="43.08" height="43.08" rx="7.69"/><path id="Path_23" data-name="Path 23" class="cls-1" d="M21.54,7.2A15.27,15.27,0,1,0,36.81,22.47h0A15.29,15.29,0,0,0,21.54,7.2ZM13,33.21a8.52,8.52,0,0,1,17,0h0A13.65,13.65,0,0,1,13,33.21Zm4-14.54a4.57,4.57,0,1,1,4.56,4.56h0A4.56,4.56,0,0,1,17,18.67ZM31.49,31.9a10.08,10.08,0,0,0-6.66-8.1,6.1,6.1,0,1,0-6.57,0,10.06,10.06,0,0,0-6.67,8.1,13.73,13.73,0,1,1,19.9,0Z"/></g><path id="Path_24" data-name="Path 24" class="cls-2" d="M21.54,6.27A15.27,15.27,0,1,0,36.81,21.55h0A15.3,15.3,0,0,0,21.54,6.27ZM13,32.29a8.52,8.52,0,0,1,17,0h0A13.65,13.65,0,0,1,13,32.29Zm4-14.54a4.57,4.57,0,1,1,4.56,4.56h0A4.56,4.56,0,0,1,17,17.75ZM31.49,31a10.07,10.07,0,0,0-6.66-8.1,6.1,6.1,0,1,0-6.57,0A10.06,10.06,0,0,0,11.59,31a13.73,13.73,0,1,1,19.9,0Z"/></svg>