<?xml version="1.0" encoding="UTF-8"?><svg id="a" xmlns="http://www.w3.org/2000/svg" viewBox="0 0 43.08 43.08"><defs><style>.i{fill:#313b73;}.j{fill:#e4eaf5;}</style></defs><g id="b"><rect id="c" class="j" width="43.08" height="43.08" rx="7.69" ry="7.69"/><path id="d" class="j" d="M21.54,7.2c-8.43,0-15.27,6.84-15.27,15.27s6.84,15.27,15.27,15.27,15.27-6.84,15.27-15.27h0c-.01-8.43-6.84-15.26-15.27-15.27Zm-8.54,26.01c.32-4.69,4.39-8.24,9.08-7.92,4.25,.29,7.63,3.67,7.92,7.92h0c-4.98,3.96-12.02,3.96-17,0Zm4-14.54c0-2.52,2.04-4.57,4.56-4.58s4.57,2.04,4.58,4.56-2.04,4.57-4.56,4.58c0,0-.01,0-.02,0h0c-2.52,0-4.56-2.04-4.56-4.56Zm14.49,13.23c-.53-3.73-3.1-6.86-6.66-8.1,2.84-1.81,3.67-5.59,1.85-8.42-1.81-2.84-5.59-3.67-8.42-1.85s-3.67,5.59-1.85,8.42c.48,.75,1.11,1.38,1.85,1.85-3.57,1.23-6.14,4.36-6.67,8.1-5.23-5.5-5.01-14.19,.49-19.41,5.5-5.23,14.19-5.01,19.41,.49,5.04,5.3,5.04,13.62,0,18.92Z"/><g id="e" transform="translate(-28 -142)"><g transform="matrix(1, 0, 0, 1, 28, 142)"><rect id="f" class="j" width="43.06" height="43.06" rx="7.69" ry="7.69"/></g><g transform="matrix(1, 0, 0, 1, 28, 142)"><path id="g" class="i" d="M34.82,20.99c.72,.45,.94,1.4,.5,2.12-.13,.2-.3,.37-.5,.5l-14.01,8.76c-.72,.45-1.67,.23-2.12-.49-.15-.25-.23-.53-.23-.82V13.53c0-.85,.69-1.54,1.54-1.54,.29,0,.57,.08,.81,.23l14.01,8.76Z"/></g><g transform="matrix(1, 0, 0, 1, 28, 142)"><path id="h" class="i" d="M24.05,20.99c.72,.45,.94,1.4,.5,2.12-.13,.2-.3,.37-.5,.5l-14.01,8.76c-.72,.45-1.67,.23-2.12-.49-.15-.25-.23-.53-.23-.82V13.53c0-.85,.69-1.54,1.54-1.54,.29,0,.57,.08,.81,.23l14.01,8.76Z"/></g></g></g></svg>