<svg id="Layer_1" data-name="Layer 1" xmlns="http://www.w3.org/2000/svg" viewBox="0 0 44.96 46.28"><defs><style>.cls-1{fill:#e4eaf5;}</style></defs><g id="Group_10" data-name="Group 10"><g id="Group_9" data-name="Group 9"><g id="Group_8" data-name="Group 8"><path id="Path_25" data-name="Path 25" class="cls-1" d="M8.42,34l1-1.23,1.32,1.1,3.09-3.72,1.55,1.29-3.09,3.72,1.3,1.08-1,1.23Z"/><path id="Path_26" data-name="Path 26" class="cls-1" d="M5.34,23.23,10.61,23l.62,2.19L8.61,26.58l3-.15.62,2.18L7.58,31.17,7,29.24,9.92,28l-3.18.2-.58-2.07L9,24.59,5.85,25Z"/><path id="Path_27" data-name="Path 27" class="cls-1" d="M5.39,20.63a1,1,0,0,1-.77.16A.9.9,0,0,1,4,20.33a1.2,1.2,0,0,1-.1-.89,1.23,1.23,0,0,1,.45-.76,1,1,0,0,1,.78-.16,1,1,0,0,1,.62.46,1.41,1.41,0,0,1-.35,1.65ZM6.45,19l5,1.07L11,22,6,20.94Z"/><path id="Path_28" data-name="Path 28" class="cls-1" d="M13.23,16.83l-1.44.05.58,1.19L11.11,19.9,9.87,17l-3,.11L8.13,15.2l1.44,0L9,14l1.26-1.82,1.16,2.95,3.1-.1Z"/><path id="Path_29" data-name="Path 29" class="cls-1" d="M16.55,12.22l.86,1.48-.66.39a1.87,1.87,0,0,1-2.62-.31,2,2,0,0,1-.26-.45l-.68-1.17-.55.32L11.8,11l.55-.31-.62-1.07,1.75-1,.62,1.07.72-.41.84,1.45-.72.42.69,1.2a.36.36,0,0,0,.21.19.44.44,0,0,0,.29-.08Z"/><path id="Path_30" data-name="Path 30" class="cls-1" d="M22.21,10.77,19,11.13q.12.64.63.6a.52.52,0,0,0,.44-.36l2.12-.23a2.15,2.15,0,0,1-.35,1,2.48,2.48,0,0,1-.8.78,2.69,2.69,0,0,1-1.14.37,2.83,2.83,0,0,1-1.38-.16,2.32,2.32,0,0,1-1-.81,3.08,3.08,0,0,1-.3-2.78,2.25,2.25,0,0,1,.82-1,2.83,2.83,0,0,1,1.32-.46,2.94,2.94,0,0,1,1.38.16,2.28,2.28,0,0,1,1,.79,2.85,2.85,0,0,1,.49,1.73Zm-2.1-.65a.45.45,0,0,0-.2-.37.62.62,0,0,0-.42-.09.57.57,0,0,0-.57.57h0Z"/><path id="Path_31" data-name="Path 31" class="cls-1" d="M26.69,9.4a1.74,1.74,0,0,1,1,0l-.68,2-.54-.18a1.4,1.4,0,0,0-.86-.07.84.84,0,0,0-.48.59l-.66,2-1.92-.64,1.62-4.86L26,8.94l-.3.9A2.51,2.51,0,0,1,26.69,9.4Z"/></g></g><path id="Path_32-2" data-name="Path 32-2" class="cls-1" d="M42.62,22.27c0,.51.06,1,.06,1.54A20.23,20.23,0,1,1,22.44,3.6a19.78,19.78,0,0,1,5.72.82,16,16,0,0,1,1-2.08,22.51,22.51,0,1,0,15.66,19.2A10.13,10.13,0,0,1,42.62,22.27Z"/><path id="Path_33" data-name="Path 33" class="cls-1" d="M22.47,20.36A3.46,3.46,0,1,1,19,23.82h0a3.46,3.46,0,0,1,3.46-3.46m0-2.28a5.74,5.74,0,1,0,5.74,5.74h0a5.74,5.74,0,0,0-5.74-5.74Z"/><path id="Path_34" data-name="Path 34" class="cls-1" d="M44.25,0,32.46,4.83v8.81a4.5,4.5,0,0,0-2.36.09c-2.05.62-3.29,2.36-2.8,4a2.75,2.75,0,0,0,1.87,1.79,4.4,4.4,0,0,0,1.25.19,5.06,5.06,0,0,0,1.4-.22,3.71,3.71,0,0,0,2.9-3.2h0V6.35l7.24-3v7.28a4.74,4.74,0,0,0-4.66,1.94,2.61,2.61,0,0,0,.5,3.66,2.72,2.72,0,0,0,1.2.5,3.84,3.84,0,0,0,.83.09,4.83,4.83,0,0,0,1.8-.37A3.7,3.7,0,0,0,44.23,13h0ZM31.17,17.28a2.25,2.25,0,0,1-1.31,0,.6.6,0,0,1-.39-.27c-.07-.23.38-.86,1.29-1.13a2.36,2.36,0,0,1,.75-.12,2,2,0,0,1,.55.08.61.61,0,0,1,.4.28c.07.23-.38.86-1.29,1.13Zm9.63-2.9a2.23,2.23,0,0,1-1.3.16.39.39,0,0,1-.44-.32.36.36,0,0,1,.15-.37,2.29,2.29,0,0,1,1-.8,2.37,2.37,0,0,1,.94-.2,1.47,1.47,0,0,1,.36,0,.57.57,0,0,1,.41.23c.1.23-.28.9-1.16,1.26Z"/></g></svg>